<?xml version="1.0" encoding="UTF-8" standalone="no"?>
<!DOCTYPE svg PUBLIC "-//W3C//DTD SVG 1.1//EN" "http://www.w3.org/Graphics/SVG/1.1/DTD/svg11.dtd">
<svg width="100%" height="100%" viewBox="0 0 1024 1024" version="1.1" xmlns="http://www.w3.org/2000/svg" xmlns:xlink="http://www.w3.org/1999/xlink" xml:space="preserve" xmlns:serif="http://www.serif.com/" style="fill-rule:evenodd;clip-rule:evenodd;stroke-linecap:round;stroke-linejoin:round;stroke-miterlimit:1.5;">
    <g transform="matrix(1.00792,0,0,1.08381,-12.8216,-55.1455)">
        <ellipse cx="513.944" cy="439.952" rx="237.765" ry="213.731" style="fill:rgb(105,156,164);stroke:rgb(105,156,164);stroke-width:1.02px;"/>
    </g>
    <path d="M672.192,540.907C676.772,539.624 678.253,541.592 677.127,546.291C674.542,551.564 670.302,553.928 665.047,554.506C655.875,556.883 645.571,557.717 633.927,556.723C632.119,558.008 629.74,558.851 626.312,558.884C622.97,559.032 615.221,559.049 613.307,558.663C605.573,557.352 598.317,554.491 591.707,549.529C590.606,551.719 585.759,553.422 575.8,554.462C568.589,554.698 561.726,554.456 555.436,553.426C569.569,549.53 580.148,544.988 588.102,539.968C590.95,539.433 592.92,539.691 593.835,540.904C596.901,543.751 600.904,546.191 606.087,548.118C615.638,550.638 624.193,550.473 631.946,548.139C639.308,546.981 644.676,547.376 650.349,547.532C660.574,546.083 667.54,543.794 672.192,540.907Z" style="fill:rgb(234,231,221);stroke:rgb(234,231,221);stroke-width:1.07px;"/>
    <path d="M744.786,414.539C680.01,450.672 627.05,469.771 588.695,467.809C570.054,526.426 549.348,550.753 527.635,558.362C536.227,537.677 543.022,515.314 542.382,486.012C523.227,488.395 508.703,500.041 498.15,519.629C482.745,551.852 476.151,572.967 474.878,587.371C474.462,594.219 474.671,598.723 475.513,600.853C481.802,623.048 489.945,639.344 499.197,653.231C487.515,654.281 447.507,649.965 441.217,644.838C430.713,637.096 422.664,625.116 418.846,607.935C400.852,611.636 384.293,613.378 370.625,611.179C303.174,608.532 254.767,581.813 238.622,541.877C230.203,526.977 231.246,480.887 239.859,461.893C292.195,351.711 382.527,278.003 462.232,194.094C470.948,191.843 480.977,188.771 488.021,191.049C537.778,218.853 563.995,278.729 594.375,312.181C630.282,330.836 679.988,340.976 730.645,342.917C734.646,349.979 745.807,391.906 744.786,414.539Z" style="fill:rgb(234,231,221);stroke:rgb(234,231,221);stroke-width:1.07px;"/>
    <path d="M244.562,553.398C248.92,562.443 254.459,569.717 261.963,574.043C248.385,585.976 235.872,594.949 225.834,597.048C234.343,580.42 240.772,565.7 244.562,553.398Z" style="fill:rgb(1,34,55);"/>
    <path d="M930.72,307.976C855.097,338.164 798.54,353.31 759.806,354.672C707.8,356.528 665.738,350.925 631.733,339.28C615.713,333.559 601.98,329.268 591.623,327.087C587.672,326.412 583.835,325.964 580.12,325.76C561.453,324.729 543.961,324.638 527.652,325.495C505.198,326.332 483.953,329.347 463.859,334.431C428.267,342.379 397.729,352.974 371.815,365.992C344.217,377.958 321.648,392.159 302.345,407.812C287.177,419.301 275.161,430.906 266.363,442.63C258.765,452.481 253.021,462.449 249.198,472.536C244.572,481.861 241.909,490.817 241.058,499.434C239.126,515.998 240.246,530.443 246.809,541.108C246.832,537.41 247.039,533.784 247.422,530.229C251.343,493.897 273.766,464.869 308.031,440.514C389.203,390.497 479.759,365.319 566.149,365.873C570.536,354.274 577.712,347.747 587.635,346.215C579.825,358.032 574.777,368.469 573.007,377.266C569.795,402.947 575.707,422.153 591.542,434.317C603.397,442.834 614.173,447.842 623.57,448.372C632.004,448.706 640.99,447.017 650.604,443.026C685.895,428.597 717.213,413.903 746.604,399.081C756.797,394.54 767.278,390.012 768.282,385.072C737.658,392.55 713.129,397.01 693.517,399.376C703.791,390.124 730.529,381.283 756.783,372.431C864.496,344.93 918.246,323.957 930.72,307.976Z" style="fill:rgb(5,43,60);"/>
    <path d="M246.809,541.108C262.476,588.372 327.238,602.552 427.699,592.673C447.592,636.215 469.989,666.879 495.259,682.771C481.744,652.906 469.601,622.583 460.696,591.182C467.207,553.386 480.107,519.242 502.747,490.663C497.532,488.818 492.793,490.3 488.346,493.831C460.079,523.073 438.944,551.667 427.574,579.373C368.783,573.884 327.284,554.908 306.895,519.465C303.502,519.228 301.561,521.29 301.189,525.835C305.6,534.719 311.783,542.716 320.725,549.335C351.218,573.434 378.488,578.19 405.517,581.503C392.4,588.26 364.933,583.595 327.729,571.181C312.803,563.426 292.343,552.868 292.186,531.519C292.662,527.376 294.186,521.198 297.449,516.444C309.577,499.604 319.764,491.553 329.084,487.24C371.611,466.633 420.268,459.43 472.013,458.794C497.424,458.611 519.072,456.955 537.247,453.94C524.834,467.068 501.614,473.805 485.457,488.034C498.09,487.013 508.846,484.652 517.074,480.484C533.445,473.681 546.752,466.171 554.943,457.48C557.549,456.701 559.455,457.04 560.488,458.777C558.725,487.293 553.05,512.332 545.623,535.813C558.169,513.575 571.017,491.926 577.476,457.834C581.179,454.963 588.204,453.547 596.941,452.879C580.563,441.673 569.591,429.99 563.909,417.841C559.228,430.769 507.269,432.319 464.558,436.094C410.976,441.591 364.515,452.494 329.367,465.672C306.472,475.202 287.879,485.501 275.738,500.407C263.787,513.02 260.002,525.621 259.624,537.013C259.389,545.307 262.01,553.902 262.047,554.104C262.289,555.414 267.771,568.186 271.832,571.286C263.265,566.21 254.885,556.998 246.809,541.108Z" style="fill:url(#_Linear1);"/>
    <path d="M592.231,366.408C585.494,375.433 585.107,388.499 591.346,405.782C598.143,419.13 607.308,427.924 619.217,431.441C632.959,434.498 641.688,431.289 650.628,428.344C673.19,420.588 696.101,412.862 709.466,404.307C695.402,402.148 679.047,403.71 661.835,406.666C674.316,390.869 706.425,380.864 742.941,372.159C740.074,369.373 711.317,368.205 687.199,366.747C668.081,365 652.018,364.183 638.688,364.199C621.457,364.281 605.434,364.816 592.231,366.408Z" style="fill:rgb(234,231,221);"/>
    <path d="M576.664,312.239C435.594,305.992 283.519,372.628 239.291,463.432C238.556,449.064 233.801,435.654 226.46,422.859C231.89,421.254 236.444,419.273 239.673,416.724L261.38,415.191C262.862,413.578 262.689,411.966 261.026,410.354L238.257,409.882C235.771,403.259 232.406,398.219 228.347,394.428C243.623,392.784 261.126,393.712 280.491,396.787L281.081,392.422C271.749,387.75 257.932,385.769 240.735,385.816C241.275,378.865 239.447,372.358 234.954,366.35C256.865,368.938 274.067,373.809 298.477,376.599C300.753,376.859 303.091,377.101 305.501,377.322L306.445,372.485C290.018,366.438 269.312,362.173 245.335,359.272C248.102,351.778 247.445,345.177 242.976,339.571C272.241,342.506 300.853,349.848 328.86,361.277L330.275,356.913C310.394,345.364 285.98,337.592 256.661,333.908C257.509,325.725 256.127,318.379 251.942,312.083C287.642,320.127 321.631,330.858 352.926,345.823L358.235,345.823L358.117,342.52C332.02,326.256 299.824,314.112 262.087,305.713C271.848,301.207 277.613,295.078 277.306,286.483C314.271,300.876 348.718,316.841 380.649,334.38L383.245,332.256C353.077,300.985 294.623,288.736 279.783,274.45C289.461,271.305 298.653,271.48 307.153,272.209C343.607,284.558 375.734,300.323 400.233,322.111L404.126,322.111C389.201,296.429 348.967,278.502 303.496,262.181C308.511,253.359 309.943,247.751 304.145,244.337C380.535,263.177 383.299,295.279 423.584,315.268L426.254,312.672C386.25,273.601 341.717,240.907 319.021,241.467C329.047,239.525 337.651,237.05 344.456,233.9C375.936,252.632 392.362,255.743 447.282,307.401C448.925,307.921 449.908,307.708 449.739,306.215C436.286,279.209 398.837,251.129 347.136,226.554C361.215,226.045 373.936,223.815 384.239,218.523C430.625,244.835 446.423,281.696 477.885,304.391C463.753,274.462 438.738,243.498 392.344,210.497C398.122,207.81 402.768,203.538 406.088,197.41C453.524,240.324 485.653,273.197 508.216,301.071C509.498,299.419 509.566,297.436 508.079,295.029C485.162,253.149 450.888,220.157 410.305,192.103C410.384,184.214 408.645,176.326 402.682,168.437C470.025,186.99 530.326,227.673 576.664,312.239Z" style="fill:rgb(9,43,59);"/>
    <g transform="matrix(1.02927,0,0,1.07895,-19.7184,-30.9197)">
        <ellipse cx="654.565" cy="383.244" rx="9.069" ry="8.406" style="fill:rgb(5,43,60);stroke:black;stroke-width:0.45px;"/>
    </g>
    <path d="M430.172,190.882C458.957,203.161 506.697,255.122 533.456,296.942C534.195,295.945 534.16,293.759 534.06,291.504C505.22,228.145 465.875,199.29 430.172,190.882Z" style="fill:rgb(154,179,179);stroke:rgb(154,179,179);stroke-width:1px;"/>
    <path d="M406.411,197.787C409.412,196.989 410.77,194.727 410.682,192.049C447.749,217.877 482.844,248.948 507.486,293.919C509.462,297.008 509.746,299.435 508.203,301.149C475.443,261.526 439.556,227.55 406.411,197.787Z" style="fill:rgb(154,179,179);stroke:rgb(154,179,179);stroke-width:1px;"/>
    <path d="M384.482,218.965C388.706,217.609 391.604,214.917 392.682,210.835C428.945,237.851 461.034,266.626 477.911,304.413C460.508,289.86 447.711,275.595 435.572,261.371C419.253,242.969 402.439,228.847 384.482,218.965Z" style="fill:rgb(154,179,179);stroke:rgb(154,179,179);stroke-width:1px;"/>
    <path d="M344.795,234.225C346.967,232.935 347.88,230.427 347.266,227.029C391.193,248.948 431.479,272.008 449.51,305.847C450.079,307.457 449.345,307.966 447.44,307.487C404.298,264.396 368.844,247.976 344.795,234.225Z" style="fill:rgb(154,179,179);stroke:rgb(154,179,179);stroke-width:1px;"/>
    <path d="M319.4,241.881C315.66,243.726 309.562,243.872 304.533,243.998C325.248,249.164 345.512,256.961 362.031,267.894C371.489,274.576 380.673,281.988 389.502,290.347C399.45,300.113 410.698,308.58 423.792,315.2L426.309,312.84C381.445,269.673 344.422,242.805 319.4,241.881Z" style="fill:rgb(154,179,179);stroke:rgb(154,179,179);stroke-width:1px;"/>
    <path d="M296.333,271.282C301.357,270.528 301.003,266.533 303.873,262.397C342.471,277.424 381.098,288.623 404.281,322.142L400.328,322.115C388.851,311.276 358.034,292.286 330.12,280.735C315.826,274.82 304.454,271.317 295.938,271.254C295.479,271.251 296.618,271.317 296.333,271.282Z" style="fill:rgb(154,179,179);stroke:rgb(154,179,179);stroke-width:1px;"/>
    <path d="M277.801,286.483C283.6,284.793 283.342,280.764 280.08,274.846C294.105,288.238 346.741,298.13 383.274,332.077L380.628,334.479C348.568,316.566 314.266,300.936 277.801,286.483Z" style="fill:rgb(154,179,179);stroke:rgb(154,179,179);stroke-width:1px;"/>
    <path d="M262.395,306.093C260.806,309.304 256.397,310.748 252.391,311.865C288.52,320.184 323.679,331.623 353.013,345.983L358.224,345.88L358.145,342.555C330.064,325.507 297.948,314.096 262.395,306.093Z" style="fill:rgb(154,179,179);stroke:rgb(154,179,179);stroke-width:1px;"/>
    <path d="M257.075,333.963C256.352,337.78 248.855,339.002 243.3,339.194C272.334,342.961 303.807,350.517 328.815,361.331L330.4,357.103C308.901,345.04 285.018,336.966 257.075,333.963Z" style="fill:rgb(154,179,179);stroke:rgb(154,179,179);stroke-width:1px;"/>
    <path d="M235.211,365.903C239.6,364.287 245.45,362.774 245.813,359.396C270.233,362.335 290.951,366.404 306.31,372.866L305.555,377.397C282.652,374.441 257.358,369.866 235.211,365.903Z" style="fill:rgb(154,179,179);stroke:rgb(154,179,179);stroke-width:1px;"/>
    <path d="M228.657,394.03C238.501,392.912 241.029,389.967 241.198,385.882C257.902,386.028 271.57,387.762 281.057,392.548L280.525,396.752C263.623,393.961 245.989,392.303 228.657,394.03Z" style="fill:rgb(154,179,179);stroke:rgb(154,179,179);stroke-width:1px;"/>
    <path d="M239.842,417.092C241.364,414.944 241.015,412.076 238.671,409.67L260.907,410.369C262.678,411.869 263.04,413.455 261.41,415.162L239.842,417.092Z" style="fill:rgb(154,179,179);stroke:rgb(154,179,179);stroke-width:1px;"/>
    <path d="M553.065,397.056C548.942,403.569 547.417,410.082 547.719,416.595C521.391,413.063 496.26,411.526 472.881,412.909C450.507,414.113 430.694,415.721 413.103,417.681C417.309,413.339 431.513,408.998 450.571,404.656C481.244,397.289 516.001,395.575 553.065,397.056Z" style="fill:rgb(1,34,55);"/>
    <path d="M319.288,511.348C339.595,543.778 373.252,560.331 416.292,565.726C432.037,540.569 447.782,517.84 463.527,500.058C430.249,517.082 397.317,532.967 368.366,535.772C377.541,520.559 436.671,495.873 484.495,473.33C420.244,474.091 360.773,481.052 319.288,511.348Z" style="fill:rgb(105,156,164);"/>
    <path d="M514.941,576.723C520.355,579.446 526.588,581.022 534.196,580.673C539.794,580.973 543.811,580.681 546.532,579.902C550.656,578.806 554.565,578.032 558.33,577.476C564.971,576.33 570.317,575.184 574.98,574.038C581.092,571.791 586.036,571.7 589.811,573.768C597.371,577.733 603.935,579.937 609.158,579.768C617.743,580.274 623.471,579.98 627.562,579.228C633.45,577.756 637.763,576.162 641.314,574.509C644.454,573.215 646.983,572.793 648.864,573.296C651.391,576.686 654.381,577.996 657.628,578.15C660.555,578.891 662.61,578.869 664.099,578.352C669.201,579.497 672.637,579.858 674.683,579.565L678.93,579.768L680.505,579.808L672.992,587.218C669.977,586.033 665.294,585.784 656.347,586.037C652.809,585.812 649.682,585.228 647.583,583.745C644.383,584.053 640.087,585.954 634.91,589.138C630.008,591.043 623.925,591.682 616.506,590.891C612.759,590.244 609.31,589.896 606.462,590.149C598.274,588.481 590.696,585.592 583.946,581.048C582.523,580.427 581.302,580.21 580.239,580.307C573.927,582.055 568.191,584.019 563.318,586.307C557.52,588.349 551.432,589.522 544.915,589.407C536.971,589.523 529.669,588.64 523.343,586.239C517.274,582.971 514.897,579.811 514.941,576.723Z" style="fill:rgb(234,231,221);stroke:rgb(234,231,221);stroke-width:1.07px;"/>
    <path d="M513.419,602.694L521.714,603.221L533.301,606.644C539.292,609.213 544.031,609.694 547.915,608.751C558.471,606.894 566.764,604.552 572.405,601.641C576.907,600.735 580.104,601.319 582.148,603.221C593.33,609.777 602.961,614.264 609.929,615.203C613.564,616.344 615.072,617.485 615.196,618.626C609.574,620.004 603.789,620.232 597.816,619.153C590.849,617.208 584.551,614.426 578.988,610.726C574.928,609.087 572.778,609.995 571.878,612.569C571.06,614.702 568.311,615.18 565.032,615.203C554.066,616.327 544.792,616.888 539.094,616.256C534.632,616.754 530.431,616.729 527.376,614.413C523.155,611.751 518.606,609.745 513.683,608.488C512.604,606.391 512.391,604.44 513.419,602.694Z" style="fill:rgb(234,231,221);stroke:rgb(234,231,221);stroke-width:1.07px;"/>
    <defs>
        <linearGradient id="_Linear1" x1="0" y1="0" x2="1" y2="0" gradientUnits="userSpaceOnUse" gradientTransform="matrix(350.132,0,0,264.93,246.809,550.306)"><stop offset="0" style="stop-color:white;stop-opacity:1"/><stop offset="0" style="stop-color:rgb(164,197,205);stop-opacity:1"/><stop offset="0.04" style="stop-color:rgb(120,152,162);stop-opacity:1"/><stop offset="0.42" style="stop-color:rgb(97,129,139);stop-opacity:1"/><stop offset="0.59" style="stop-color:rgb(48,78,91);stop-opacity:1"/><stop offset="0.76" style="stop-color:rgb(16,45,59);stop-opacity:1"/><stop offset="1" style="stop-color:rgb(0,29,44);stop-opacity:1"/></linearGradient>
    </defs>
</svg>
